<svg width="24.131348" height="22.000000" viewBox="0 0 24.1313 22" fill="none" xmlns="http://www.w3.org/2000/svg" xmlns:xlink="http://www.w3.org/1999/xlink">
	<desc>
			Created with Pixso.
	</desc>
	<defs>
		<clipPath id="clip7_3845">
			<rect width="24.131544" height="22.000000" fill="white" fill-opacity="0"/>
		</clipPath>
	</defs>
	<rect width="24.131544" height="22.000000" fill="#FFFFFF" fill-opacity="0"/>
	<g clip-path="url(#clip7_3845)">
		<path d="M16.04 3.55C18.88 3.55 21.19 5.68 21.19 8.67C21.19 14.65 14.16 18.06 11.82 19.35C9.48 18.06 2.45 14.65 2.45 8.67C2.45 5.68 4.8 3.55 7.61 3.55C9.35 3.55 10.88 4.4 11.82 5.26C12.76 4.4 14.29 3.55 16.04 3.55ZM12.7 16.87C13.52 16.4 14.27 15.93 14.96 15.42C17.75 13.4 19.31 11.19 19.31 8.67C19.31 6.66 17.87 5.26 16.04 5.26C15.03 5.26 13.94 5.74 13.14 6.46L11.82 7.67L10.5 6.46C9.7 5.74 8.61 5.26 7.61 5.26C5.79 5.26 4.33 6.67 4.33 8.67C4.33 11.19 5.89 13.4 8.68 15.42C9.38 15.93 10.12 16.4 10.95 16.87C11.23 17.03 11.5 17.19 11.82 17.36C12.14 17.19 12.42 17.03 12.7 16.87Z" fill="#FFFFFF" fill-opacity="1.000000" fill-rule="nonzero"/>
	</g>
</svg>
