<svg width="364.924316" height="120.900391" viewBox="0 0 364.924 120.9" fill="none" xmlns="http://www.w3.org/2000/svg" xmlns:xlink="http://www.w3.org/1999/xlink">
	<desc>
			Created with Pixso.
	</desc>
	<defs>
		<filter id="filter_1_1133_dd" x="0.000000" y="0.000000" width="364.924316" height="120.900391" filterUnits="userSpaceOnUse" color-interpolation-filters="sRGB">
			<feFlood flood-opacity="0" result="BackgroundImageFix"/>
			<feColorMatrix in="SourceAlpha" type="matrix" values="0 0 0 0 0 0 0 0 0 0 0 0 0 0 0 0 0 0 127 0" result="hardAlpha"/>
			<feOffset dx="0" dy="4"/>
			<feGaussianBlur stdDeviation="1.33333"/>
			<feComposite in2="hardAlpha" operator="out" k2="-1" k3="1"/>
			<feColorMatrix type="matrix" values="0 0 0 0 0 0 0 0 0 0 0 0 0 0 0 0 0 0 0.25 0"/>
			<feBlend mode="normal" in2="BackgroundImageFix" result="effect_dropShadow_1"/>
			<feBlend mode="normal" in="SourceGraphic" in2="effect_dropShadow_1" result="shape"/>
		</filter>
	</defs>
	<g filter="url(#filter_1_1133_dd)">
		<path id="Immersive Entertainment" d="M188.76 0.96C188.12 1.6 187.8 2.38 187.8 3.3C187.8 4.18 188.12 4.96 188.76 5.64Q189.38 6.22 190.11 6.45Q190.58 6.6 191.1 6.6Q191.83 6.6 192.44 6.33Q192.99 6.09 193.44 5.64C194.08 4.96 194.4 4.18 194.4 3.3C194.4 2.38 194.08 1.6 193.44 0.96C192.8 0.32 192.02 0 191.1 0C190.22 0 189.44 0.32 188.76 0.96ZM9.21 0.3L4.11 0.3L4.11 42.3L9.21 42.3L9.21 0.3ZM56.32 42.3L56.32 24.9C56.32 22.62 55.96 20.68 55.24 19.08Q54.39 17.02 52.87 15.8Q52.57 15.56 52.24 15.36C50.92 14.52 49.32 14.1 47.44 14.1C45.6 14.1 43.96 14.54 42.52 15.42C41.08 16.26 39.88 17.54 38.92 19.26C38.28 17.62 37.26 16.36 35.86 15.48C34.5 14.56 32.86 14.1 30.94 14.1C29.22 14.1 27.72 14.48 26.44 15.24C25.2 16 24.16 17.16 23.32 18.72L23.32 14.7L18.52 14.7L18.52 42.3L23.32 42.3L23.32 25.5C23.32 24.06 23.58 22.82 24.1 21.78C24.62 20.74 25.36 19.96 26.32 19.44C27.28 18.88 28.42 18.6 29.74 18.6C31.54 18.6 32.86 19.16 33.7 20.28C34.58 21.4 35.02 23.14 35.02 25.5L35.02 42.3L39.82 42.3L39.82 25.5C39.82 24.06 40.08 22.82 40.6 21.78C41.12 20.74 41.86 19.96 42.82 19.44C43.78 18.88 44.92 18.6 46.24 18.6C48.04 18.6 49.36 19.16 50.2 20.28C51.08 21.4 51.52 23.14 51.52 25.5L51.52 42.3L56.32 42.3ZM103.14 42.3L103.14 24.9C103.14 22.62 102.78 20.68 102.06 19.08Q101.21 17.02 99.68 15.8Q99.38 15.56 99.06 15.36C97.74 14.52 96.14 14.1 94.26 14.1C92.42 14.1 90.78 14.54 89.34 15.42C87.9 16.26 86.7 17.54 85.74 19.26C85.1 17.62 84.08 16.36 82.68 15.48C81.32 14.56 79.68 14.1 77.76 14.1C76.04 14.1 74.54 14.48 73.26 15.24C72.02 16 70.98 17.16 70.14 18.72L70.14 14.7L65.34 14.7L65.34 42.3L70.14 42.3L70.14 25.5C70.14 24.06 70.4 22.82 70.92 21.78C71.44 20.74 72.18 19.96 73.14 19.44C74.1 18.88 75.24 18.6 76.56 18.6C78.36 18.6 79.68 19.16 80.52 20.28C81.4 21.4 81.84 23.14 81.84 25.5L81.84 42.3L86.64 42.3L86.64 25.5C86.64 24.06 86.9 22.82 87.42 21.78C87.94 20.74 88.68 19.96 89.64 19.44C90.6 18.88 91.74 18.6 93.06 18.6C94.86 18.6 96.18 19.16 97.02 20.28C97.9 21.4 98.34 23.14 98.34 25.5L98.34 42.3L103.14 42.3ZM116 41.1C118 42.3 120.28 42.9 122.84 42.9C125.8 42.9 128.36 42.32 130.52 41.16C132.72 39.96 134.53 38.2 135.98 35.88L132.08 33.42C131.08 35.1 129.86 36.36 128.42 37.2C126.98 38 125.32 38.4 123.44 38.4C121.56 38.4 119.96 38 118.64 37.2C117.32 36.4 116.32 35.24 115.64 33.72C115.12 32.56 114.8 31.22 114.67 29.7L136.39 29.7L136.39 29.16C136.44 28.84 136.46 28.54 136.46 28.26C136.46 25.34 135.94 22.82 134.89 20.7C133.86 18.58 132.36 16.96 130.39 15.84C128.48 14.68 126.16 14.1 123.44 14.1C120.72 14.1 118.32 14.7 116.24 15.9C114.2 17.1 112.6 18.78 111.44 20.94C110.32 23.1 109.76 25.62 109.76 28.5Q109.76 32.76 111.38 36Q112.51 38.18 114.21 39.74Q115.04 40.49 116 41.1ZM114.85 25.62C115.03 24.59 115.31 23.67 115.7 22.86Q116.56 21.09 117.95 20Q118.3 19.73 118.7 19.5C120.02 18.7 121.6 18.3 123.44 18.3C125 18.3 126.36 18.64 127.52 19.32C128.67 20 129.58 20.94 130.22 22.14C130.78 23.14 131.12 24.3 131.21 25.62L114.85 25.62ZM154.43 18.96C154.95 19.16 155.53 19.5 156.17 19.98L158.81 16.02C158.09 15.26 157.29 14.76 156.41 14.52C155.57 14.24 154.65 14.1 153.65 14.1C152.37 14.1 151.11 14.6 149.87 15.6C149.11 16.21 148.43 16.96 147.83 17.85L147.83 14.7L143.03 14.7L143.03 42.3L147.83 42.3L147.83 25.5C147.83 24.18 147.95 23 148.19 21.96C148.47 20.92 148.95 20.1 149.63 19.5C150.31 18.9 151.25 18.6 152.45 18.6C153.25 18.6 153.91 18.72 154.43 18.96ZM166.66 36.18C165.94 35.46 165.3 34.68 164.74 33.84L160.96 36.18C161.48 37.26 162.24 38.32 163.24 39.36C164.28 40.4 165.54 41.26 167.02 41.94C168.5 42.58 170.16 42.9 172 42.9C174.84 42.9 177.12 42.1 178.84 40.5C180.6 38.9 181.48 36.9 181.48 34.5C181.48 32.86 181.08 31.52 180.28 30.48C179.52 29.44 178.48 28.56 177.16 27.84C175.84 27.08 174.38 26.38 172.78 25.74C171.82 25.34 170.9 24.92 170.02 24.48Q168.7 23.82 167.86 22.98C167.3 22.42 167.02 21.78 167.02 21.06Q167.02 20.24 167.4 19.68Q167.66 19.29 168.1 19.02Q169.18 18.36 170.68 18.36C172.12 18.36 173.4 18.7 174.52 19.38C175.68 20.06 176.64 20.92 177.4 21.96L181.24 19.5C180.68 18.46 179.9 17.54 178.9 16.74C177.9 15.94 176.74 15.3 175.42 14.82C174.14 14.34 172.76 14.1 171.28 14.1C169.8 14.1 168.36 14.36 166.96 14.88C165.6 15.4 164.48 16.2 163.6 17.28Q163.48 17.44 163.36 17.6Q162.34 19.14 162.34 21.36C162.34 22.96 162.74 24.3 163.54 25.38C164.38 26.42 165.4 27.28 166.6 27.96C167.84 28.6 169.06 29.16 170.26 29.64C171.34 30.04 172.36 30.48 173.32 30.96C174.28 31.4 175.06 31.96 175.66 32.64C176.3 33.28 176.62 34.08 176.62 35.04C176.62 36.12 176.22 36.98 175.42 37.62C174.66 38.22 173.6 38.52 172.24 38.52C171.12 38.52 170.08 38.32 169.12 37.92C168.2 37.48 167.38 36.9 166.66 36.18ZM232.77 41.1C234.77 42.3 237.05 42.9 239.61 42.9C242.57 42.9 245.13 42.32 247.29 41.16C249.49 39.96 251.31 38.2 252.75 35.88L248.85 33.42C247.85 35.1 246.63 36.36 245.19 37.2C243.75 38 242.09 38.4 240.21 38.4C238.33 38.4 236.73 38 235.41 37.2C234.09 36.4 233.09 35.24 232.41 33.72C231.9 32.56 231.58 31.22 231.45 29.7L253.17 29.7L253.17 29.16C253.21 28.84 253.23 28.54 253.23 28.26C253.23 25.34 252.71 22.82 251.67 20.7C250.63 18.58 249.13 16.96 247.17 15.84C245.25 14.68 242.93 14.1 240.21 14.1C237.49 14.1 235.09 14.7 233.01 15.9C230.97 17.1 229.37 18.78 228.21 20.94Q226.53 24.18 226.53 28.5C226.53 31.34 227.07 33.84 228.15 36C229.27 38.16 230.81 39.86 232.77 41.1ZM231.63 25.62C231.81 24.59 232.09 23.67 232.47 22.86C233.19 21.38 234.19 20.26 235.47 19.5C236.79 18.7 238.37 18.3 240.21 18.3C241.77 18.3 243.13 18.64 244.29 19.32C245.45 20 246.35 20.94 246.99 22.14C247.56 23.14 247.89 24.3 247.99 25.62L231.63 25.62ZM193.5 14.7L188.7 14.7L188.7 42.3L193.5 42.3L193.5 14.7ZM204.29 14.7L198.89 14.7L212.09 44.4L225.29 14.7L219.89 14.7L212.09 34.2L204.29 14.7ZM188.69 70.9C187.89 71.66 187.49 72.6 187.49 73.72C187.49 74.8 187.89 75.74 188.69 76.54C189.53 77.3 190.49 77.68 191.57 77.68C192.73 77.68 193.69 77.3 194.45 76.54C195.25 75.74 195.65 74.8 195.65 73.72C195.65 72.6 195.25 71.66 194.45 70.9C193.69 70.14 192.73 69.76 191.57 69.76C190.49 69.76 189.53 70.14 188.69 70.9ZM8.37 70.3L3.99 70.3L3.99 112.3L29.55 112.3L29.55 106.06L10.95 106.06L10.95 92.86L28.35 92.86L28.35 86.74L10.95 86.74L10.95 76.54L29.55 76.54L29.55 70.3L8.37 70.3ZM77.63 75.1L71.21 75.1L71.21 84.7L66.59 84.7L66.59 90.4L71.21 90.4L71.21 112.3L77.63 112.3L77.63 90.4L82.25 90.4L82.25 84.7L77.63 84.7L77.63 75.1ZM148.41 75.1L141.99 75.1L141.99 84.7L137.37 84.7L137.37 90.4L141.99 90.4L141.99 112.3L148.41 112.3L148.41 90.4L153.03 90.4L153.03 84.7L148.41 84.7L148.41 75.1ZM356.3 75.1L349.88 75.1L349.88 84.7L345.26 84.7L345.26 90.4L349.88 90.4L349.88 112.3L356.3 112.3L356.3 90.4L360.92 90.4L360.92 84.7L356.3 84.7L356.3 75.1ZM156.9 87.34L159.54 91.9C159.94 91.62 160.54 91.28 161.34 90.88C162.18 90.44 163.16 90.08 164.28 89.8C165.44 89.48 166.66 89.32 167.94 89.32Q169.2 89.32 170.28 89.56C171 89.72 171.62 89.98 172.14 90.34C172.66 90.7 173.06 91.16 173.34 91.72Q173.82 92.56 173.82 93.88L173.82 97.28C172.96 96.75 171.88 96.3 170.58 95.92C169.26 95.52 167.68 95.32 165.84 95.32C162.4 95.32 159.74 96.12 157.86 97.72C155.98 99.28 155.04 101.4 155.04 104.08C155.04 105.96 155.48 107.56 156.36 108.88C157.24 110.2 158.42 111.2 159.9 111.88C161.38 112.56 162.98 112.9 164.7 112.9C166.3 112.9 167.86 112.62 169.38 112.06C170.94 111.46 172.22 110.58 173.22 109.42C173.44 109.16 173.64 108.89 173.82 108.6L173.82 112.3L180.18 112.3L180.18 92.62C180.18 90.78 179.68 89.24 178.68 88C177.68 86.72 176.3 85.74 174.54 85.06C172.82 84.38 170.82 84.04 168.54 84.04C165.98 84.04 163.7 84.4 161.7 85.12C159.74 85.84 158.14 86.58 156.9 87.34ZM173.82 101.38L173.82 100.93C173.18 100.62 172.52 100.37 171.84 100.18C170.44 99.78 168.96 99.58 167.4 99.58C166.04 99.58 164.94 99.76 164.1 100.12Q162.84 100.6 162.18 101.5C161.78 102.1 161.58 102.84 161.58 103.72Q161.58 104.93 162.09 105.86Q162.16 105.99 162.24 106.12C162.68 106.76 163.28 107.24 164.04 107.56C164.84 107.88 165.74 108.04 166.74 108.04C168.02 108.04 169.18 107.78 170.22 107.26C171.3 106.74 172.16 105.98 172.8 104.98C173.48 103.94 173.82 102.74 173.82 101.38ZM54.23 90.88C55.07 91.92 55.49 93.46 55.49 95.5L55.49 112.3L62.15 112.3L62.15 94.78Q62.15 89.8 59.69 86.98C58.05 85.06 55.67 84.1 52.55 84.1C50.63 84.1 48.97 84.5 47.57 85.3C46.21 86.1 45.09 87.32 44.21 88.96L44.21 84.7L37.73 84.7L37.73 112.3L44.21 112.3L44.21 95.5C44.21 94.26 44.47 93.18 44.99 92.26C45.51 91.3 46.23 90.58 47.15 90.1C48.07 89.58 49.13 89.32 50.33 89.32C52.09 89.32 53.39 89.84 54.23 90.88ZM86.36 106.06C87.52 108.22 89.16 109.9 91.28 111.1C93.44 112.3 95.92 112.9 98.72 112.9C101.92 112.9 104.66 112.28 106.94 111.04C109.22 109.8 111.08 107.94 112.52 105.46L106.94 103.18C106.06 104.66 104.96 105.76 103.64 106.48C102.32 107.2 100.78 107.56 99.02 107.56C97.34 107.56 95.9 107.2 94.7 106.48C93.54 105.76 92.66 104.72 92.06 103.36C91.64 102.38 91.37 101.26 91.24 100L112.7 100C112.74 99.84 112.76 99.58 112.76 99.22C112.8 98.86 112.82 98.52 112.82 98.2C112.82 95.24 112.26 92.72 111.14 90.64C110.06 88.52 108.5 86.9 106.46 85.78C104.42 84.66 101.94 84.1 99.02 84.1C96.1 84.1 93.56 84.7 91.4 85.9C89.24 87.06 87.56 88.72 86.36 90.88C85.2 93.04 84.62 95.58 84.62 98.5C84.62 101.38 85.2 103.9 86.36 106.06ZM91.42 95.56L105.77 95.56C105.69 94.38 105.4 93.34 104.9 92.44C104.34 91.36 103.54 90.52 102.5 89.92C101.5 89.32 100.32 89.02 98.96 89.02Q96.5 89.02 94.76 90.1C93.6 90.82 92.72 91.86 92.12 93.22Q91.66 94.26 91.42 95.56ZM131.96 90.52Q132.74 90.88 133.64 91.6L136.76 86.14C136.16 85.38 135.42 84.86 134.54 84.58C133.66 84.26 132.72 84.1 131.72 84.1C130.32 84.1 128.96 84.6 127.64 85.6C126.81 86.25 126.07 87.05 125.42 88.01L125.42 84.7L119 84.7L119 112.3L125.42 112.3L125.42 96.76C125.42 95.44 125.56 94.3 125.84 93.34C126.16 92.34 126.66 91.56 127.34 91C128.02 90.44 128.9 90.16 129.98 90.16C130.78 90.16 131.44 90.28 131.96 90.52ZM220.17 90.88C221.01 91.92 221.43 93.46 221.43 95.5L221.43 112.3L228.09 112.3L228.09 94.78C228.09 91.46 227.27 88.86 225.63 86.98C223.99 85.06 221.61 84.1 218.49 84.1C216.57 84.1 214.91 84.5 213.51 85.3C212.15 86.1 211.03 87.32 210.15 88.96L210.15 84.7L203.67 84.7L203.67 112.3L210.15 112.3L210.15 95.5C210.15 94.26 210.41 93.18 210.93 92.26C211.45 91.3 212.17 90.58 213.09 90.1C214.01 89.58 215.07 89.32 216.27 89.32C218.03 89.32 219.33 89.84 220.17 90.88ZM275.85 112.3L275.85 94.78C275.85 92.5 275.53 90.56 274.89 88.96C274.25 87.36 273.26 86.16 271.95 85.36C270.67 84.52 269.04 84.1 267.09 84.1C265.21 84.1 263.53 84.52 262.04 85.36C260.6 86.2 259.41 87.42 258.45 89.02C257.85 87.42 256.87 86.2 255.51 85.36C254.19 84.52 252.51 84.1 250.47 84.1C248.71 84.1 247.17 84.5 245.85 85.3C244.57 86.06 243.53 87.2 242.73 88.72L242.73 84.7L236.37 84.7L236.37 112.3L242.73 112.3L242.73 95.5C242.73 94.18 242.95 93.06 243.39 92.14C243.83 91.22 244.45 90.52 245.25 90.04C246.09 89.56 247.07 89.32 248.19 89.32C249.79 89.32 250.95 89.84 251.67 90.88C252.43 91.88 252.81 93.42 252.81 95.5L252.81 112.3L259.29 112.3L259.29 95.5C259.29 94.18 259.51 93.06 259.95 92.14C260.43 91.22 261.07 90.52 261.87 90.04C262.71 89.56 263.67 89.32 264.75 89.32C266.35 89.32 267.51 89.84 268.23 90.88C268.99 91.88 269.37 93.42 269.37 95.5L269.37 112.3L275.85 112.3ZM283.76 106.06C284.92 108.22 286.56 109.9 288.68 111.1C290.84 112.3 293.32 112.9 296.12 112.9C299.32 112.9 302.06 112.28 304.34 111.04C306.62 109.8 308.48 107.94 309.92 105.46L304.34 103.18C303.46 104.66 302.36 105.76 301.04 106.48C299.72 107.2 298.18 107.56 296.42 107.56Q293.9 107.56 292.1 106.48C290.94 105.76 290.06 104.72 289.46 103.36C289.04 102.38 288.77 101.26 288.64 100L310.1 100C310.14 99.84 310.16 99.58 310.16 99.22C310.2 98.86 310.22 98.52 310.22 98.2Q310.22 93.76 308.54 90.64C307.46 88.52 305.9 86.9 303.86 85.78C301.82 84.66 299.34 84.1 296.42 84.1C293.5 84.1 290.96 84.7 288.8 85.9C286.64 87.06 284.96 88.72 283.76 90.88C282.6 93.04 282.02 95.58 282.02 98.5C282.02 101.38 282.6 103.9 283.76 106.06ZM288.82 95.56L303.17 95.56C303.09 94.38 302.8 93.34 302.3 92.44C301.74 91.36 300.94 90.52 299.9 89.92C298.9 89.32 297.72 89.02 296.36 89.02C294.72 89.02 293.32 89.38 292.16 90.1C291 90.82 290.12 91.86 289.52 93.22Q289.06 94.26 288.82 95.56ZM332.9 90.88C333.74 91.92 334.16 93.46 334.16 95.5L334.16 112.3L340.82 112.3L340.82 94.78C340.82 91.46 340 88.86 338.36 86.98C336.72 85.06 334.34 84.1 331.22 84.1C329.3 84.1 327.64 84.5 326.24 85.3C324.88 86.1 323.76 87.32 322.88 88.96L322.88 84.7L316.4 84.7L316.4 112.3L322.88 112.3L322.88 95.5C322.88 94.26 323.14 93.18 323.66 92.26C324.18 91.3 324.9 90.58 325.82 90.1Q325.88 90.07 325.93 90.04Q327.27 89.32 329 89.32C330.76 89.32 332.06 89.84 332.9 90.88ZM194.75 84.7L188.39 84.7L188.39 112.3L194.75 112.3L194.75 84.7Z" fill="#FFFFFF" fill-opacity="1.000000" fill-rule="evenodd"/>
	</g>
</svg>
